<?xml version="1.0" encoding="utf-8"?>
<svg viewBox="172.8378 183.0025 94.0963 94.1749" width="94.096" height="94.175" xmlns="http://www.w3.org/2000/svg">
  <path d="M 210.971 183.737 C 200.948 185.808 192.639 190.555 185.358 198.408 C 166.169 219.293 169.424 251.051 192.468 268.483 C 205.745 278.58 225.876 280.047 241.809 272.021 C 251.489 267.102 260.827 256.229 264.681 245.182 C 266.823 239.055 267.594 227.06 266.309 220.846 C 262.454 202.809 246.607 187.103 229.046 183.824 C 223.306 182.788 216.025 182.702 210.971 183.737 Z M 228.532 191.591 C 238.64 193.921 250.033 202.809 254.916 212.13 C 257.743 217.567 259.37 224.039 259.37 230.253 C 259.37 234.999 257.743 244.233 256.715 245.355 C 256.286 245.873 253.288 243.456 249.433 239.314 L 243.009 232.496 L 238.64 237.243 L 234.271 241.903 L 227.761 234.826 C 224.163 230.943 220.908 227.75 220.479 227.75 C 220.051 227.75 216.71 230.943 213.112 234.826 L 206.516 241.903 L 202.062 237.07 L 197.607 232.237 L 190.497 239.659 L 183.302 247.081 L 181.845 240.35 C 178.933 227.146 181.417 215.754 189.555 205.485 C 198.892 193.748 214.226 188.225 228.532 191.591 Z M 229.817 246.736 C 229.131 247.512 228.532 248.375 228.532 248.634 C 228.532 248.893 231.444 252.173 234.956 255.883 C 238.469 259.594 241.381 262.96 241.381 263.391 C 241.381 264.168 232.644 268.224 230.331 268.569 C 229.56 268.656 226.99 266.585 224.42 263.737 L 219.965 258.818 L 219.965 251.223 L 219.88 243.715 L 217.31 246.908 L 214.74 250.101 L 212.684 247.771 L 210.714 245.441 L 215.597 240.177 L 220.394 234.826 L 225.705 240.091 C 230.502 244.837 230.93 245.528 229.817 246.736 Z M 204.46 247.254 L 210.714 253.812 L 206.945 257.696 L 203.261 261.666 L 206.088 261.148 C 209.515 260.457 209.515 261.234 206.345 264.341 L 203.775 266.757 L 200.777 264.859 C 197.864 263.133 197.693 262.701 197.693 258.386 C 197.693 255.193 197.35 253.64 196.494 253.381 C 195.808 253.122 195.123 251.482 194.952 249.67 L 194.695 246.391 L 192.211 250.447 C 189.384 254.934 188.955 255.107 187.414 253.122 C 186.471 252 187.071 251.051 191.782 246.218 C 194.781 243.197 197.436 240.695 197.693 240.695 C 197.95 240.695 200.948 243.629 204.46 247.254 Z M 248.406 245.528 C 250.89 248.203 253.031 250.706 253.203 251.137 C 253.545 252 244.808 262.27 243.694 262.27 C 243.266 262.27 243.094 258.99 243.18 254.934 C 243.351 250.878 243.266 247.599 243.009 247.599 C 242.666 247.599 241.809 248.634 240.953 249.843 L 239.497 252.086 L 237.783 250.36 L 235.984 248.634 L 239.325 244.665 C 241.124 242.507 242.923 240.695 243.266 240.695 C 243.608 240.695 245.921 242.852 248.406 245.528 Z M 256.723 249.865 C 255.695 252.627 257.613 252.417 256.715 251.914 C 256.195 251.623 267.347 246.177 258.342 247.167 C 254.481 247.592 257.837 247.103 256.723 249.865 Z M 186.386 258.127 C 182.959 253.899 183.503 255.177 184.128 256.286 C 185.325 258.408 183.699 255.689 185.669 256.984 C 187.554 258.278 188.87 257.092 190.583 256.315 C 193.753 254.848 194.267 255.107 194.267 258.386 C 194.267 260.112 194.866 262.701 195.637 264.082 C 196.322 265.549 196.836 266.843 196.665 267.016 C 196.065 267.62 189.212 261.666 186.386 258.127 Z M 216.539 255.538 C 216.539 257.092 217.567 259.767 218.937 261.752 C 221.85 266.067 227.332 271.763 228.532 271.763 C 228.96 271.763 229.388 272.108 229.388 272.453 C 229.388 274.438 212.941 274.351 207.63 272.28 C 204.032 270.9 202.319 269.174 204.546 269.174 C 206.345 269.174 210.542 263.909 210.542 261.752 C 210.542 258.818 213.712 252.777 215.254 252.777 C 216.111 252.777 216.539 253.64 216.539 255.538 Z" style="stroke: rgb(0, 0, 0); fill: rgb(104, 160, 68); stroke-width: 0px;"/>
  <path d="M 190.669 212.302 C 190.155 212.648 189.983 213.511 190.24 214.287 C 190.669 215.409 192.125 215.668 197.179 215.668 C 203.604 215.668 205.66 214.719 203.775 212.82 C 202.747 211.785 192.211 211.353 190.669 212.302 Z" stroke="none" style="fill: rgb(104, 160, 68);"/>
  <path d="M 212.256 212.043 C 211.827 212.216 211.399 213.079 211.399 214.028 C 211.399 215.582 212.084 215.668 221.679 215.668 C 230.245 215.668 232.13 215.409 232.558 214.374 C 232.815 213.597 232.815 212.734 232.472 212.475 C 231.958 211.957 213.798 211.526 212.256 212.043 Z" stroke="none" style="fill: rgb(104, 160, 68);"/>
  <path d="M 194.609 222.14 C 193.753 224.384 195.466 225.247 199.92 224.988 C 203.432 224.729 204.118 224.471 204.118 223.003 C 204.118 221.536 203.432 221.277 199.578 221.019 C 196.065 220.846 194.952 221.019 194.609 222.14 Z" stroke="none" style="fill: rgb(104, 160, 68);"/>
  <path d="M 228.018 222.14 C 227.075 224.557 228.617 225.161 235.813 225.161 C 242.923 225.161 244.208 224.557 243.351 221.882 C 242.752 220.242 228.617 220.414 228.018 222.14 Z" stroke="none" style="fill: rgb(104, 160, 68);"/>
</svg>